# xmcd
#
# Track frame offsets:
#	150
#	10834
#	35685
#	56492
#	74748
#	91576
#	108888
#	119317
#	134691
#	152185
#	171362
#
# Disc length: 2527 seconds
#
# Revision: 1
# Processed by: cddbd v1.5.2PL0 Copyright (c) Steve Scherf et al.
# Submitted via: EasyCDDAExtractor 15.3.0.1
#
DISCID=9509dd0b
DTITLE=Sven Zetterberg - Moving In The Right Direction
DYEAR=2004
DGENRE=Blues
TTITLE0=Moving In The Right Direction
TTITLE1=Song From A Worried Heart
TTITLE2=I'm In The Wrong
TTITLE3=Mile After Mile
TTITLE4=A World Outside
TTITLE5=I Passed The Limit
TTITLE6=Love Treated Me Unkind
TTITLE7=It Starts To Take Hold
TTITLE8=Heartaches Was All You Got
TTITLE9=My Way Around
TTITLE10=Since I Been Loving You
EXTD=
EXTT0=
EXTT1=
EXTT2=
EXTT3=
EXTT4=
EXTT5=
EXTT6=
EXTT7=
EXTT8=
EXTT9=
EXTT10=
PLAYORDER=
